<svg width="10.009033" height="16.000000" viewBox="0 0 10.009 16" fill="none" xmlns="http://www.w3.org/2000/svg" xmlns:xlink="http://www.w3.org/1999/xlink">
	 
	<path id="path" d="M0.5 6.33L0.5 9.66L2.95 9.66L2.95 15.5L6.22 15.5L6.22 9.66L8.68 9.66L9.5 6.33L6.22 6.33L6.22 4.66C6.22 4.11 6.5 3.83 7.04 3.83L9.5 3.83L9.5 0.5L7.04 0.5C6.5 0.5 5.98 0.6 5.47 0.81C4.97 1.02 4.53 1.32 4.15 1.72C3.76 2.11 3.47 2.56 3.26 3.07C3.05 3.58 2.95 4.11 2.95 4.66L2.95 6.33L0.5 6.33Z" fill="#000000" fill-opacity="0" fill-rule="nonzero"/>
	<path id="path" d="M0.5 9.66L2.95 9.66L2.95 15.5L6.22 15.5L6.22 9.66L8.68 9.66L9.5 6.33L6.22 6.33L6.22 4.66C6.22 4.11 6.5 3.83 7.04 3.83L9.5 3.83L9.5 0.5L7.04 0.5C6.5 0.5 5.98 0.6 5.47 0.81C4.97 1.02 4.53 1.32 4.15 1.72C3.76 2.11 3.47 2.56 3.26 3.07C3.05 3.58 2.95 4.11 2.95 4.66L2.95 6.33L0.5 6.33L0.5 9.66Z" stroke="#FFFFFF" stroke-opacity="1.000000" stroke-width="1.000000" stroke-linejoin="round"/>
</svg>
