<svg width="15.004150" height="14.004089" viewBox="0 0 15.0042 14.0041" fill="none" xmlns="http://www.w3.org/2000/svg" xmlns:xlink="http://www.w3.org/1999/xlink">
	<desc>
			Created with Pixso.
	</desc>
	<defs/>
	<path id="path" d="M0.84 13.84L0.84 13.86C0.63 14.05 0.32 14.04 0.13 13.84C-0.06 13.63 -0.05 13.32 0.16 13.13L0.19 13.13L0.84 13.84ZM6.08 7.66L6.08 7.63C6.28 7.44 6.59 7.45 6.79 7.66C6.98 7.86 6.96 8.17 6.76 8.36L6.73 8.36L6.08 7.66ZM8.91 6.34L8.91 6.37C8.71 6.56 8.4 6.54 8.21 6.34C8.01 6.13 8.03 5.82 8.23 5.63L8.26 5.63L8.91 6.34ZM14.16 0.16L14.16 0.13C14.36 -0.06 14.67 -0.05 14.86 0.16C15.05 0.36 15.04 0.67 14.84 0.86L14.81 0.86L14.16 0.16Z" fill="#000000" fill-opacity="0" fill-rule="nonzero"/>
	<path id="path" d="M0.5 13.5L6.42 8M8.57 6L14.5 0.5" stroke="#FFFFFF" stroke-opacity="1.000000" stroke-width="1.000000" stroke-linejoin="round" stroke-linecap="round"/>
	<path id="path" d="M0.5 0.5L10.76 13.5L14.5 13.5L4.23 0.5L0.5 0.5Z" fill="#000000" fill-opacity="0" fill-rule="nonzero"/>
	<path id="path" d="M10.76 13.5L14.5 13.5L4.23 0.5L0.5 0.5L10.76 13.5Z" stroke="#FFFFFF" stroke-opacity="1.000000" stroke-width="1.000000" stroke-linejoin="round"/>
</svg>
