<svg viewBox="0 0 16.0005 16.0002" fill="currentColor" > 
	<path id="path (Border)" d="M6.14 7.52C6.31 7.5 6.46 7.44 6.59 7.35C6.66 7.29 6.75 7.2 6.8 7.12C6.88 6.99 6.92 6.83 6.92 6.65L6.92 5.88C6.92 5.7 6.88 5.54 6.8 5.41C6.75 5.33 6.69 5.27 6.62 5.21C6.46 5.08 6.21 5 5.96 5C5.7 5 5.49 5.06 5.33 5.18C5.26 5.24 5.16 5.33 5.12 5.41C5.04 5.54 5 5.7 5 5.88L5 6.65C5 6.87 5.01 7.08 5.05 7.29C5.11 7.65 5.23 8 5.4 8.34C5.44 8.42 5.48 8.5 5.53 8.58C5.78 9.02 6.11 9.41 6.53 9.75C6.57 9.79 6.61 9.82 6.66 9.86C7.11 10.21 7.61 10.48 8.18 10.67C8.8 10.89 9.44 11 10.11 11L11.03 11C11.29 11 11.5 10.93 11.66 10.81C11.73 10.75 11.83 10.66 11.87 10.58C11.95 10.45 12 10.29 12 10.11C12 9.93 11.95 9.77 11.87 9.64C11.83 9.56 11.77 9.5 11.7 9.44C11.54 9.32 11.29 9.23 11.03 9.23L10.11 9.23C9.84 9.23 9.61 9.3 9.44 9.44C9.37 9.5 9.32 9.56 9.27 9.64C9.22 9.72 9.19 9.81 9.17 9.91C9.09 9.89 9.01 9.87 8.93 9.85C8.79 9.82 8.65 9.78 8.51 9.73C8 9.55 7.55 9.31 7.17 8.98C6.81 8.69 6.53 8.35 6.33 7.96C6.27 7.84 6.18 7.65 6.14 7.52ZM6 6.65L6 6.54L6 6L6 5.88C5.99 5.89 6 5.99 6 6C5.99 5.99 6 5.89 6 5.88L6 6C5.98 6 5.9 6 5.89 6C5.9 6 5.98 6 6 6L6 6.54C5.98 6.54 5.9 6.53 5.89 6.53C5.9 6.53 5.98 6.54 6 6.54L6 6.65Z"   fill-rule="evenodd"/>
	<path id="path (Border)" d="M1.3 12.37L0.04 15.28C0 15.37 -0.01 15.47 0 15.57C0.03 15.73 0.1 15.85 0.19 15.92C0.29 15.98 0.42 16 0.58 15.97L4.63 15.25C4.87 15.36 5.12 15.46 5.37 15.55C5.67 15.66 5.98 15.74 6.3 15.81C6.93 15.95 7.57 16.01 8.21 15.99C8.86 15.98 9.49 15.88 10.11 15.71C10.73 15.54 11.33 15.3 11.89 14.98C12.45 14.67 12.97 14.29 13.44 13.85C13.68 13.63 13.9 13.4 14.11 13.16C14.31 12.91 14.51 12.65 14.68 12.38C14.86 12.12 15.02 11.84 15.16 11.55C15.3 11.26 15.43 10.97 15.54 10.66C15.65 10.36 15.73 10.05 15.8 9.74C15.87 9.42 15.92 9.11 15.96 8.79C16.02 8.14 16.01 7.5 15.91 6.86C15.87 6.54 15.8 6.23 15.72 5.92C15.64 5.61 15.54 5.31 15.42 5.01C15.3 4.71 15.16 4.42 15 4.13C14.85 3.85 14.68 3.58 14.49 3.32C14.3 3.06 14.1 2.81 13.88 2.57C13.66 2.34 13.43 2.12 13.19 1.91C12.94 1.7 12.68 1.5 12.42 1.33C12.15 1.15 11.87 0.99 11.59 0.85C11.3 0.7 11 0.57 10.7 0.47C10.4 0.36 10.09 0.27 9.78 0.2C9.46 0.12 9.15 0.07 8.83 0.04C8.51 0 8.19 -0.01 7.87 0C7.54 0 7.22 0.03 6.91 0.07C6.59 0.11 6.28 0.18 5.96 0.26C5.65 0.34 5.35 0.44 5.05 0.56C4.75 0.68 4.46 0.81 4.18 0.97C3.89 1.12 3.62 1.29 3.36 1.48C3.1 1.66 2.85 1.86 2.61 2.08C2.37 2.3 2.15 2.53 1.94 2.77C1.73 3.01 1.54 3.27 1.36 3.54C1.18 3.81 1.02 4.08 0.87 4.37C0.73 4.65 0.6 4.95 0.49 5.25C0.38 5.56 0.28 5.86 0.21 6.17C0.14 6.49 0.08 6.8 0.05 7.13C0.01 7.45 0 7.77 0 8.09C0.01 8.41 0.03 8.73 0.07 9.05C0.11 9.37 0.17 9.68 0.26 9.99C0.34 10.3 0.43 10.61 0.55 10.91C0.67 11.21 0.8 11.5 0.96 11.79C1.06 11.98 1.18 12.18 1.3 12.37ZM2.33 12.51C2.4 12.34 2.39 12.18 2.28 12.03C2.12 11.8 1.97 11.56 1.84 11.31C1.7 11.06 1.59 10.81 1.48 10.54C1.38 10.28 1.29 10.02 1.22 9.74C1.15 9.47 1.1 9.2 1.06 8.92C1.03 8.64 1.01 8.36 1 8.08C1 7.8 1.01 7.51 1.04 7.23C1.07 6.95 1.12 6.68 1.19 6.4C1.25 6.13 1.33 5.86 1.43 5.6C1.52 5.33 1.63 5.07 1.76 4.82C1.89 4.57 2.03 4.33 2.19 4.1C2.35 3.86 2.52 3.64 2.7 3.42C2.88 3.21 3.08 3.01 3.29 2.82C3.49 2.63 3.71 2.45 3.94 2.29C4.17 2.13 4.41 1.98 4.65 1.85C4.9 1.71 5.16 1.59 5.42 1.49C5.68 1.38 5.95 1.3 6.22 1.23C6.49 1.15 6.77 1.1 7.04 1.06C7.32 1.02 7.6 1 7.88 1C8.45 0.99 9.01 1.04 9.56 1.17C9.83 1.23 10.1 1.31 10.36 1.41C10.63 1.5 10.89 1.61 11.14 1.74C11.39 1.87 11.63 2.01 11.86 2.16C12.1 2.32 12.32 2.49 12.54 2.67C12.97 3.04 13.35 3.45 13.68 3.91C14.01 4.37 14.28 4.86 14.49 5.38C14.7 5.9 14.85 6.45 14.92 7C14.97 7.28 14.99 7.56 14.99 7.84C15 8.12 14.99 8.41 14.96 8.69C14.91 9.25 14.78 9.8 14.6 10.33C14.5 10.6 14.39 10.86 14.27 11.11C14.14 11.36 14 11.6 13.85 11.84C13.54 12.31 13.18 12.74 12.76 13.12C12.56 13.31 12.34 13.49 12.11 13.66C11.89 13.82 11.65 13.97 11.4 14.11C10.91 14.39 10.39 14.6 9.85 14.75C9.3 14.9 8.75 14.98 8.18 14.99C7.62 15.01 7.06 14.96 6.51 14.83C5.96 14.71 5.43 14.53 4.92 14.28C4.82 14.23 4.72 14.22 4.61 14.24L1.33 14.83L2.33 12.51Z" fill-rule="evenodd"/>
</svg>
