<svg viewBox="0 0 18 14" fill="currentColor"  >	 
	<path id="path (Border)" d="M7.76 9.92L11.76 7.42C11.83 7.38 11.88 7.33 11.92 7.26C12.01 7.12 12.04 6.99 12.01 6.88C11.99 6.76 11.9 6.66 11.76 6.57L7.76 4.07C7.72 4.05 7.68 4.03 7.63 4.01C7.59 4 7.54 4 7.5 4C7.33 4 7.2 4.04 7.12 4.12C7.04 4.2 7 4.33 7 4.5L7 9.5C7 9.54 7 9.59 7.01 9.63C7.03 9.68 7.05 9.72 7.07 9.76C7.16 9.9 7.26 9.99 7.38 10.01C7.49 10.04 7.62 10.01 7.76 9.92ZM10.55 7L8 5.4L8 8.59L10.55 7Z" fill-rule="evenodd"/>
	<path id="path (Border)" d="M3.89 0C2.82 0 1.91 0.36 1.15 1.09C0.74 1.48 0.44 1.91 0.25 2.39C0.08 2.81 0 3.26 0 3.75L0 10.25C0 10.73 0.08 11.18 0.25 11.6C0.44 12.08 0.74 12.51 1.15 12.9C1.5 13.24 1.89 13.5 2.31 13.68C2.79 13.89 3.32 14 3.89 14L14.1 14C14.67 14 15.2 13.89 15.68 13.68C16.1 13.5 16.49 13.24 16.84 12.9C17.61 12.17 18 11.29 18 10.25L18 3.75C18 2.7 17.61 1.82 16.84 1.09C16.49 0.75 16.1 0.49 15.68 0.31C15.2 0.1 14.67 0 14.1 0L3.89 0ZM1.17 2.78C1.31 2.42 1.53 2.1 1.84 1.81C2.09 1.56 2.38 1.37 2.68 1.24C3.05 1.08 3.45 1 3.89 1L14.1 1C14.54 1 14.94 1.08 15.31 1.24C15.61 1.37 15.9 1.56 16.15 1.81C16.46 2.1 16.68 2.42 16.82 2.78C16.94 3.08 17 3.4 17 3.75L17 10.25C17 11 16.71 11.65 16.15 12.18C15.9 12.43 15.61 12.62 15.31 12.75C14.94 12.91 14.54 13 14.1 13L3.89 13C3.45 13 3.05 12.91 2.68 12.75C2.38 12.62 2.09 12.43 1.84 12.18C1.28 11.65 1 11 1 10.25L1 3.75C1 3.4 1.05 3.08 1.17 2.78Z"  fill-rule="evenodd"/>
</svg>
