<svg width="18.000000" height="15.000000" viewBox="0 0 18 15" fill="none" xmlns="http://www.w3.org/2000/svg" xmlns:xlink="http://www.w3.org/1999/xlink">
	<desc>
			Created with Pixso.
	</desc>
	<defs/>
	<path id="path" d="M4.18 1.44C2.77 0.45 0.5 -0.31 0.5 2.12C0.5 2.6 0.79 6.2 0.97 6.78C1.57 8.81 3.63 9.04 5.59 8.73C2.16 9.28 1.44 11.37 3.33 13.19C4.2 14.02 4.95 14.5 5.59 14.5C7.3 14.5 8.26 12.21 8.57 11.61C8.85 11.06 9 10.65 9 10.38C9 10.65 9.14 11.06 9.42 11.61C9.73 12.21 10.7 14.5 12.4 14.5C13.04 14.5 13.79 14.02 14.66 13.19C16.55 11.37 15.83 9.28 12.4 8.73C14.36 9.04 16.42 8.81 17.02 6.78C17.2 6.2 17.5 2.6 17.5 2.12C17.5 -0.31 15.22 0.45 13.81 1.44C11.86 2.81 9.76 5.59 9 7.08C8.23 5.59 6.13 2.81 4.18 1.44Z" fill="#000000" fill-opacity="0" fill-rule="nonzero"/>
	<path id="path" d="M0.5 2.12C0.5 2.6 0.79 6.2 0.97 6.78C1.57 8.81 3.63 9.04 5.59 8.73C2.16 9.28 1.44 11.37 3.33 13.19C4.2 14.02 4.95 14.5 5.59 14.5C7.3 14.5 8.26 12.21 8.57 11.61C8.85 11.06 9 10.65 9 10.38C9 10.65 9.14 11.06 9.42 11.61C9.73 12.21 10.7 14.5 12.4 14.5C13.04 14.5 13.79 14.02 14.66 13.19C16.55 11.37 15.83 9.28 12.4 8.73C14.36 9.04 16.42 8.81 17.02 6.78C17.2 6.2 17.5 2.6 17.5 2.12C17.5 -0.31 15.22 0.45 13.81 1.44C11.86 2.81 9.76 5.59 9 7.08C8.23 5.59 6.13 2.81 4.18 1.44C2.77 0.45 0.5 -0.31 0.5 2.12Z" stroke="#FFFFFF" stroke-opacity="1.000000" stroke-width="1.000000" stroke-linejoin="round"/>
</svg>
