<svg width="58.000000" height="58.000000" viewBox="0 0 58 58" fill="none" xmlns="http://www.w3.org/2000/svg" xmlns:xlink="http://www.w3.org/1999/xlink">
	<desc>
			Created with Pixso.
	</desc>
	<defs>
		<clipPath id="clip94_2669">
			<rect id="svg" width="58.000000" height="58.000000" fill="white" fill-opacity="0"/>
		</clipPath>
	</defs>
	<g clip-path="url(#clip94_2669)">
		<path id="path" d="M41.08 45.91L45.91 45.91L45.91 26.58L31.41 26.58L31.41 45.91L36.25 45.91L36.25 31.41L41.08 31.41L41.08 45.91ZM7.25 45.91L7.25 9.66C7.25 8.33 8.33 7.25 9.66 7.25L43.5 7.25C44.83 7.25 45.91 8.33 45.91 9.66L45.91 21.75L50.75 21.75L50.75 45.91L53.16 45.91L53.16 50.75L4.83 50.75L4.83 45.91L7.25 45.91ZM16.91 26.58L16.91 31.41L21.75 31.41L21.75 26.58L16.91 26.58ZM16.91 36.25L16.91 41.08L21.75 41.08L21.75 36.25L16.91 36.25ZM16.91 16.91L16.91 21.75L21.75 21.75L21.75 16.91L16.91 16.91Z" fill="#FFFFFF" fill-opacity="1.000000" fill-rule="nonzero"/>
	</g>
</svg>
