<svg width="15.003784" height="12.000000" viewBox="0 0 15.0038 12" fill="none" xmlns="http://www.w3.org/2000/svg" xmlns:xlink="http://www.w3.org/1999/xlink">
	<desc>
			Created with Pixso.
	</desc>
	<defs/>
	<path id="path" d="M0.5 2.07C0.5 1.63 0.65 1.26 0.95 0.96C1.26 0.65 1.62 0.5 2.05 0.5L12.94 0.5C13.37 0.5 13.74 0.65 14.04 0.96C14.35 1.26 14.5 1.63 14.5 2.07L14.5 9.92C14.5 10.36 14.35 10.73 14.04 11.03C13.74 11.34 13.37 11.5 12.94 11.5L2.05 11.5C1.62 11.5 1.26 11.34 0.95 11.03C0.65 10.73 0.5 10.36 0.5 9.92L0.5 2.07Z" fill="#000000" fill-opacity="0" fill-rule="nonzero"/>
	<path id="path" d="M0.95 0.96C1.26 0.65 1.62 0.5 2.05 0.5L12.94 0.5C13.37 0.5 13.74 0.65 14.04 0.96C14.35 1.26 14.5 1.63 14.5 2.07L14.5 9.92C14.5 10.36 14.35 10.73 14.04 11.03C13.74 11.34 13.37 11.5 12.94 11.5L2.05 11.5C1.62 11.5 1.26 11.34 0.95 11.03C0.65 10.73 0.5 10.36 0.5 9.92L0.5 2.07C0.5 1.63 0.65 1.26 0.95 0.96Z" stroke="#FFFFFF" stroke-opacity="1.000000" stroke-width="1.000000" stroke-linejoin="round"/>
	<path id="path" d="M0.23 2.9L0.21 2.9C-0.02 2.74 -0.07 2.43 0.09 2.2C0.25 1.98 0.56 1.93 0.79 2.09L0.79 2.12L0.23 2.9ZM14.2 2.12L14.21 2.09C14.43 1.93 14.74 1.98 14.9 2.2C15.07 2.43 15.02 2.74 14.79 2.9L14.76 2.9L14.2 2.12Z" fill="#000000" fill-opacity="0" fill-rule="nonzero"/>
	<path id="path" d="M0.5 2.5L7.5 7.5L14.5 2.5" stroke="#FFFFFF" stroke-opacity="1.000000" stroke-width="1.000000" stroke-linejoin="round" stroke-linecap="round"/>
</svg>
