<svg width="19.000000" height="19.000000" viewBox="0 0 19 19" fill="none" xmlns="http://www.w3.org/2000/svg" xmlns:xlink="http://www.w3.org/1999/xlink">
	<desc>
			Created with Pixso.
	</desc>
	<defs>
		<clipPath id="clip52_59">
			<rect id="svg" width="19.000000" height="19.000000" fill="white" fill-opacity="0"/>
		</clipPath>
	</defs>
	<g clip-path="url(#clip52_59)">
		<path id="path" d="M3.95 3.16L7.12 3.16L8.7 7.12L6.72 8.31C7.6 10.07 8.92 11.39 10.68 12.27L11.87 10.29L15.83 11.87L15.83 15.04C15.83 15.47 15.67 15.85 15.36 16.16C15.06 16.47 14.68 16.62 14.25 16.62C12.7 16.53 11.22 16.16 9.81 15.53C8.4 14.89 7.15 14.03 6.06 12.93C4.96 11.84 4.1 10.59 3.46 9.18C2.83 7.77 2.46 6.29 2.37 4.75C2.37 4.31 2.52 3.93 2.83 3.63C3.14 3.32 3.52 3.16 3.95 3.16Z" fill="#000000" fill-opacity="0" fill-rule="nonzero"/>
		<path id="path" d="M7.12 3.16L8.7 7.12L6.72 8.31C7.6 10.07 8.92 11.39 10.68 12.27L11.87 10.29L15.83 11.87L15.83 15.04C15.83 15.47 15.67 15.85 15.36 16.16C15.06 16.47 14.68 16.62 14.25 16.62C12.7 16.53 11.22 16.16 9.81 15.53C8.4 14.89 7.15 14.03 6.06 12.93C4.96 11.84 4.1 10.59 3.46 9.18C2.83 7.77 2.46 6.29 2.37 4.75C2.37 4.31 2.52 3.93 2.83 3.63C3.14 3.32 3.52 3.16 3.95 3.16L7.12 3.16Z" stroke="#FFFFFF" stroke-opacity="1.000000" stroke-width="1.000000" stroke-linejoin="round"/>
		<path id="path" d="M11.89 6.02L11.87 6.04C11.59 6.04 11.37 5.82 11.37 5.54C11.37 5.26 11.59 5.04 11.87 5.04L11.89 5.06L11.89 6.02ZM13.93 7.1L13.95 7.12C13.95 7.4 13.73 7.62 13.45 7.62C13.17 7.62 12.95 7.4 12.95 7.12L12.97 7.1L13.93 7.1Z" fill="#000000" fill-opacity="0" fill-rule="nonzero"/>
		<path id="path" d="M11.87 5.54C12.31 5.54 12.68 5.69 12.99 6C13.3 6.31 13.45 6.68 13.45 7.12" stroke="#FFFFFF" stroke-opacity="1.000000" stroke-width="1.000000" stroke-linejoin="round" stroke-linecap="round"/>
		<path id="path" d="M11.89 2.85L11.87 2.87C11.59 2.87 11.37 2.65 11.37 2.37C11.37 2.09 11.59 1.87 11.87 1.87L11.89 1.89L11.89 2.85ZM17.1 7.1L17.12 7.12C17.12 7.4 16.9 7.62 16.62 7.62C16.34 7.62 16.12 7.4 16.12 7.12L16.14 7.1L17.1 7.1Z" fill="#000000" fill-opacity="0" fill-rule="nonzero"/>
		<path id="path" d="M11.87 2.37C12.5 2.37 13.11 2.49 13.69 2.73C14.27 2.97 14.78 3.32 15.23 3.76C15.67 4.21 16.02 4.72 16.26 5.3C16.5 5.88 16.62 6.49 16.62 7.12" stroke="#FFFFFF" stroke-opacity="1.000000" stroke-width="1.000000" stroke-linejoin="round" stroke-linecap="round"/>
	</g>
</svg>
