<svg width="16.000610" height="16.000031" viewBox="0 0 16.0006 16" fill="none" xmlns="http://www.w3.org/2000/svg" xmlns:xlink="http://www.w3.org/1999/xlink">
	<desc>
			Created with Pixso.
	</desc>
	<defs/>
	<path id="path" d="M5.57 6.9Q5.68 7.03 5.96 7.03Q6.23 7.03 6.34 6.9Q6.42 6.81 6.42 6.65L6.42 5.88Q6.42 5.72 6.34 5.63Q6.23 5.5 5.96 5.5Q5.68 5.5 5.57 5.63Q5.5 5.72 5.5 5.88L5.5 6.65Q5.5 6.81 5.57 6.9ZM11.03 10.5L10.11 10.5C9.8 10.5 9.65 10.37 9.65 10.11C9.65 9.85 9.8 9.73 10.11 9.73L11.03 9.73Q11.31 9.73 11.42 9.86Q11.5 9.95 11.5 10.11Q11.5 10.27 11.42 10.36Q11.31 10.5 11.03 10.5Z" fill="#000000" fill-opacity="0" fill-rule="evenodd"/>
	<path id="path" d="M5.96 7.03C6.26 7.03 6.42 6.91 6.42 6.65L6.42 5.88C6.42 5.62 6.26 5.5 5.96 5.5C5.65 5.5 5.5 5.62 5.5 5.88L5.5 6.65C5.5 6.91 5.65 7.03 5.96 7.03ZM5.5 6.65C5.5 7.16 5.61 7.65 5.85 8.12C6.08 8.59 6.41 9.01 6.85 9.37C7.28 9.73 7.78 10.01 8.34 10.2C8.91 10.4 9.5 10.5 10.11 10.5M11.03 10.5C11.34 10.5 11.5 10.37 11.5 10.11C11.5 9.85 11.34 9.73 11.03 9.73L10.11 9.73C9.8 9.73 9.65 9.85 9.65 10.11C9.65 10.37 9.8 10.5 10.11 10.5L11.03 10.5Z" stroke="#FFFFFF" stroke-opacity="1.000000" stroke-width="1.000000" stroke-linejoin="round"/>
	<path id="path" d="M0.5 15.48L1.87 12.31C1.52 11.82 1.24 11.29 1.02 10.73C0.8 10.16 0.65 9.58 0.57 8.98C0.49 8.38 0.48 7.78 0.55 7.18C0.61 6.58 0.75 5.99 0.96 5.42C1.16 4.86 1.44 4.32 1.77 3.82C2.11 3.32 2.5 2.86 2.95 2.45C3.4 2.04 3.88 1.7 4.42 1.41C4.95 1.12 5.51 0.9 6.09 0.74C6.68 0.59 7.27 0.51 7.88 0.5C8.48 0.49 9.08 0.55 9.67 0.68C10.26 0.82 10.82 1.02 11.36 1.29C11.9 1.56 12.4 1.9 12.86 2.29C13.32 2.68 13.73 3.12 14.08 3.61C14.44 4.11 14.73 4.63 14.95 5.19C15.18 5.75 15.33 6.34 15.42 6.93C15.51 7.53 15.52 8.13 15.46 8.74C15.4 9.34 15.27 9.92 15.07 10.5C14.86 11.07 14.6 11.6 14.27 12.11C13.93 12.62 13.55 13.07 13.1 13.49C12.66 13.9 12.18 14.25 11.65 14.55C11.12 14.84 10.56 15.07 9.98 15.23C9.4 15.39 8.8 15.48 8.2 15.49C7.59 15.51 6.99 15.45 6.4 15.32C5.81 15.19 5.25 15 4.7 14.73L0.5 15.48Z" fill="#000000" fill-opacity="0" fill-rule="nonzero"/>
	<path id="path" d="M1.87 12.31C1.52 11.82 1.24 11.29 1.02 10.73C0.8 10.16 0.65 9.58 0.57 8.98C0.49 8.38 0.48 7.78 0.55 7.18C0.61 6.58 0.75 5.99 0.96 5.42C1.16 4.86 1.44 4.32 1.77 3.82C2.11 3.32 2.5 2.86 2.95 2.45C3.4 2.04 3.88 1.7 4.42 1.41C4.95 1.12 5.51 0.9 6.09 0.74C6.68 0.59 7.27 0.51 7.88 0.5C8.48 0.49 9.08 0.55 9.67 0.68C10.26 0.82 10.82 1.02 11.36 1.29C11.9 1.56 12.4 1.9 12.86 2.29C13.32 2.68 13.73 3.12 14.08 3.61C14.44 4.11 14.73 4.63 14.95 5.19C15.18 5.75 15.33 6.34 15.42 6.93C15.51 7.53 15.52 8.13 15.46 8.74C15.4 9.34 15.27 9.92 15.07 10.5C14.86 11.07 14.6 11.6 14.27 12.11C13.93 12.62 13.55 13.07 13.1 13.49C12.66 13.9 12.18 14.25 11.65 14.55C11.12 14.84 10.56 15.07 9.98 15.23C9.4 15.39 8.8 15.48 8.2 15.49C7.59 15.51 6.99 15.45 6.4 15.32C5.81 15.19 5.25 15 4.7 14.73L0.5 15.48L1.87 12.31Z" stroke="#FFFFFF" stroke-opacity="1.000000" stroke-width="1.000000" stroke-linejoin="round"/>
</svg>
