<svg width="18.000000" height="14.000000" viewBox="0 0 18 14" fill="none" xmlns="http://www.w3.org/2000/svg" xmlns:xlink="http://www.w3.org/1999/xlink">
	<desc>
			Created with Pixso.
	</desc>
	<defs/>
	<path id="path" d="M7.5 4.5L11.5 7L7.5 9.5L7.5 4.5Z" fill="#000000" fill-opacity="0" fill-rule="nonzero"/>
	<path id="path" d="M11.5 7L7.5 9.5L7.5 4.5L11.5 7Z" stroke="#FFFFFF" stroke-opacity="1.000000" stroke-width="1.000000" stroke-linejoin="round"/>
	<path id="path" d="M0.5 3.75C0.5 2.85 0.83 2.08 1.49 1.45C2.15 0.81 2.96 0.5 3.9 0.5L14.1 0.5C15.03 0.5 15.84 0.81 16.5 1.45C17.16 2.08 17.5 2.85 17.5 3.75L17.5 10.25C17.5 11.14 17.16 11.91 16.5 12.54C15.84 13.18 15.03 13.5 14.1 13.5L3.9 13.5C2.96 13.5 2.15 13.18 1.49 12.54C0.83 11.91 0.5 11.14 0.5 10.25L0.5 3.75Z" fill="#000000" fill-opacity="0" fill-rule="nonzero"/>
	<path id="path" d="M1.49 1.45C2.15 0.81 2.96 0.5 3.9 0.5L14.1 0.5C15.03 0.5 15.84 0.81 16.5 1.45C17.16 2.08 17.5 2.85 17.5 3.75L17.5 10.25C17.5 11.14 17.16 11.91 16.5 12.54C15.84 13.18 15.03 13.5 14.1 13.5L3.9 13.5C2.96 13.5 2.15 13.18 1.49 12.54C0.83 11.91 0.5 11.14 0.5 10.25L0.5 3.75C0.5 2.85 0.83 2.08 1.49 1.45Z" stroke="#FFFFFF" stroke-opacity="1.000000" stroke-width="1.000000" stroke-linejoin="round"/>
</svg>
